Coordinates
version=1
nRows=65
nColumns=12
inDegrees=yes

Units are S.I. units (second, meters, Newtons, ...)
Angles are in degrees

endheader
time	SC_y	SC_z	SC_x	AC_y	AC_z	AC_x	GH_y	GH_z	GH_yy	EL_x	PS_y
       0.0              -35.26          1.695          68.62          57.83         -7.854        -0.0323         -18.05          33.25         -13.35           40.0          93.41
   0.02303              -35.26          1.698          68.62          57.82         -7.852       -0.03405         -18.02          33.25         -13.34          40.01           93.4
   0.04606              -35.27          1.701          68.61          57.82         -7.851       -0.03592         -17.99          33.26         -13.33          40.02          93.38
   0.06908              -35.27          1.704           68.6          57.81         -7.849        -0.0379         -17.96          33.26         -13.32          40.03          93.37
   0.09211              -35.27          1.708           68.6          57.81         -7.848       -0.04001         -17.93          33.27         -13.31          40.04          93.36
    0.1151              -35.28          1.712          68.59           57.8         -7.846       -0.04226          -17.9          33.27         -13.29          40.05          93.35
    0.1382              -35.28          1.716          68.59           57.8         -7.844       -0.04466         -17.86          33.28         -13.28          40.06          93.33
    0.1612              -35.29          1.721          68.58          57.79         -7.842       -0.04723         -17.83          33.28         -13.27          40.08          93.31
    0.1842              -35.29          1.726          68.57          57.79          -7.84       -0.04998         -17.78          33.29         -13.25          40.09           93.3
    0.2073               -35.3          1.731          68.56          57.78         -7.837       -0.05293         -17.74           33.3         -13.24           40.1          93.28
    0.2303               -35.3          1.736          68.55          57.77         -7.835        -0.0561         -17.69           33.3         -13.22          40.12          93.26
    0.2533              -35.31          1.742          68.54          57.76         -7.832       -0.05951         -17.64          33.31          -13.2          40.14          93.24
    0.2763              -35.31          1.749          68.53          57.76         -7.829       -0.06319         -17.59          33.32         -13.18          40.16          93.22
    0.2994              -35.32          1.756          68.52          57.75         -7.826       -0.06716         -17.53          33.33         -13.16          40.18          93.19
    0.3224              -35.33          1.763          68.51          57.74         -7.822       -0.07146         -17.46          33.34         -13.14           40.2          93.16
    0.3454              -35.33          1.771          68.49          57.73         -7.818       -0.07612         -17.39          33.35         -13.12          40.22          93.14
    0.3685              -35.34           1.78          68.48          57.71         -7.814       -0.08119         -17.32          33.37         -13.09          40.25           93.1
    0.3915              -35.35           1.79          68.46           57.7          -7.81       -0.08671         -17.24          33.38         -13.06          40.28          93.07
    0.4145              -35.36            1.8          68.45          57.69         -7.805       -0.09273         -17.15          33.39         -13.03          40.31          93.03
    0.4375              -35.37          1.812          68.43          57.67         -7.799       -0.09933         -17.05          33.41         -12.99          40.34          92.99
    0.4606              -35.39          1.825          68.41          57.66         -7.794        -0.1066         -16.94          33.43         -12.96          40.38          92.95
    0.4836               -35.4          1.839          68.38          57.64         -7.787        -0.1145         -16.82          33.45         -12.92          40.42           92.9
    0.5066              -35.41          1.854          68.36          57.62          -7.78        -0.1234         -16.69          33.47         -12.87          40.47          92.84
    0.5297              -35.43          1.871          68.33           57.6         -7.772        -0.1331         -16.54          33.49         -12.82          40.52          92.78
    0.5527              -35.45           1.89           68.3          57.57         -7.763         -0.144         -16.38          33.52         -12.76          40.57          92.72
    0.5757              -35.47          1.911          68.26          57.54         -7.753        -0.1561          -16.2          33.55          -12.7          40.64          92.64
    0.5987              -35.49          1.935          68.22          57.51         -7.742        -0.1696          -16.0          33.58         -12.63          40.71          92.56
    0.6218              -35.52          1.962          68.18          57.48          -7.73        -0.1849         -15.77          33.62         -12.55          40.78          92.46
    0.6448              -35.54          1.992          68.13          57.44         -7.716        -0.2021         -15.51          33.66         -12.46          40.87          92.36
    0.6678              -35.58          2.026          68.07          57.39           -7.7        -0.2217         -15.22          33.71         -12.35          40.97          92.23
    0.6908              -35.61          2.065          68.01          57.34         -7.682         -0.244         -14.88          33.76         -12.24          41.09           92.1
    0.7139              -35.66           2.11          67.93          57.28         -7.661        -0.2697          -14.5          33.83          -12.1          41.22          91.94
    0.7369              -35.71          2.162          67.84          57.22         -7.637        -0.2992         -14.06           33.9         -11.95          41.37          91.75
    0.7599              -35.76          2.222          67.74          57.14         -7.609        -0.3336         -13.55          33.98         -11.77          41.55          91.54
     0.783              -35.83          2.293          67.63          57.05         -7.577        -0.3739         -12.94          34.08         -11.56          41.76          91.29
     0.806              -35.91          2.376          67.49          56.94         -7.538        -0.4213         -12.24           34.2         -11.31           42.0           91.0
     0.829               -36.0          2.475          67.33          56.81         -7.492        -0.4777         -11.39          34.34         -11.01          42.29          90.65
     0.852              -36.12          2.593          67.13          56.66         -7.437        -0.5452         -10.38           34.5         -10.66          42.64          90.23
    0.8751              -36.25          2.736          66.89          56.47         -7.371         -0.627         -9.161           34.7         -10.23          43.06          89.72
    0.8981              -36.42          2.911           66.6          56.24          -7.29        -0.7268         -7.669          34.95         -9.706          43.57           89.1
    0.9211              -36.62          3.127          66.24          55.96          -7.19        -0.8501         -5.827          35.25          -9.06          44.21          88.34
    0.9442              -36.88          3.396           65.8          55.61         -7.065         -1.004         -3.531          35.63         -8.254           45.0          87.39
    0.9672               -37.2          3.735          65.23          55.17         -6.908         -1.197        -0.6375           36.1         -7.239          45.99          86.19
    0.9902              -37.61          4.166          64.52          54.61         -6.708         -1.443           3.04           36.7         -5.949          47.26          84.66
     1.013              -38.14          4.717           63.6          53.89         -6.452         -1.758          7.748          37.47         -4.298          48.88          82.71
     1.036              -38.81          5.425          62.42          52.96         -6.124         -2.163          13.79          38.46         -2.179          50.96          80.21
     1.059              -39.67          6.329          60.92          51.79         -5.704         -2.679          21.51          39.73         0.5276          53.62          77.01
     1.082              -40.75          7.466          59.03          50.31         -5.177         -3.328          31.21          41.32          3.931          56.96          72.99
     1.105              -42.07          8.852          56.73           48.5         -4.535          -4.12          43.03          43.25          8.078          61.03          68.08
     1.128               -43.6          10.46          54.06          46.41          -3.79         -5.037          56.74           45.5          12.89          65.75           62.4
     1.151              -45.25           12.2          51.18          44.14         -2.983          -6.03          71.58          47.93          18.09          70.86          56.25
     1.174              -46.91          13.94          48.29          41.88         -2.177         -7.023          86.42          50.36           23.3          75.97           50.1
     1.197              -48.43          15.54          45.62          39.78         -1.432          -7.94          100.1          52.61           28.1          80.69          44.42
      1.22              -49.75          16.93          43.32          37.98        -0.7897         -8.731          111.9          54.55          32.25          84.76          39.51
     1.244              -50.83          18.06          41.43           36.5        -0.2624          -9.38          121.7          56.14          35.65           88.1          35.49
     1.267              -51.69          18.97          39.93          35.32         0.1569         -9.897          129.4           57.4          38.36          90.76          32.29
      1.29              -52.37          19.68          38.75           34.4         0.4852          -10.3          135.4          58.39          40.48          92.84          29.79
     1.313              -52.89          20.23          37.84          33.68          0.741         -10.62          140.1          59.16          42.13          94.46          27.84
     1.336               -53.3          20.66          37.12          33.12         0.9409         -10.86          143.8          59.77          43.42          95.73          26.31
     1.359              -53.62           21.0          36.56          32.67          1.098         -11.06          146.7          60.24          44.44          96.73          25.11
     1.382              -53.88          21.27          36.11          32.32          1.223         -11.21          149.0          60.62          45.24          97.52          24.16
     1.405              -54.09          21.48          35.75          32.04          1.323         -11.33          150.8          60.92          45.89          98.15           23.4
     1.428              -54.25          21.66          35.46          31.81          1.404         -11.43          152.3          61.16          46.41          98.67          22.78
     1.451              -54.39           21.8          35.22          31.63           1.47         -11.51          153.5          61.36          46.84          99.09          22.27
     1.474               -54.5          21.92          35.03          31.47          1.525         -11.58          154.6          61.53          47.19          99.43          21.85
